<svg width="20" height="14" viewBox="0 0 20 14" fill="none" xmlns="http://www.w3.org/2000/svg">
<path d="M2.00033 0.333252H8.66699C9.02061 0.333252 9.35975 0.473728 9.6098 0.723776C9.85985 0.973825 10.0003 1.31296 10.0003 1.66659C10.0003 2.02021 9.85985 2.35935 9.6098 2.60939C9.35975 2.85944 9.02061 2.99992 8.66699 2.99992H2.00033C1.6467 2.99992 1.30757 2.85944 1.05752 2.60939C0.807468 2.35935 0.666992 2.02021 0.666992 1.66659C0.666992 1.31296 0.807468 0.973825 1.05752 0.723776C1.30757 0.473728 1.6467 0.333252 2.00033 0.333252V0.333252ZM11.3337 10.9999H18.0003C18.3539 10.9999 18.6931 11.1404 18.9431 11.3904C19.1932 11.6405 19.3337 11.9796 19.3337 12.3333C19.3337 12.6869 19.1932 13.026 18.9431 13.2761C18.6931 13.5261 18.3539 13.6666 18.0003 13.6666H11.3337C10.98 13.6666 10.6409 13.5261 10.3909 13.2761C10.1408 13.026 10.0003 12.6869 10.0003 12.3333C10.0003 11.9796 10.1408 11.6405 10.3909 11.3904C10.6409 11.1404 10.98 10.9999 11.3337 10.9999ZM2.00033 5.66658H18.0003C18.3539 5.66658 18.6931 5.80706 18.9431 6.05711C19.1932 6.30716 19.3337 6.6463 19.3337 6.99992C19.3337 7.35354 19.1932 7.69268 18.9431 7.94273C18.6931 8.19278 18.3539 8.33325 18.0003 8.33325H2.00033C1.6467 8.33325 1.30757 8.19278 1.05752 7.94273C0.807468 7.69268 0.666992 7.35354 0.666992 6.99992C0.666992 6.6463 0.807468 6.30716 1.05752 6.05711C1.30757 5.80706 1.6467 5.66658 2.00033 5.66658Z" fill="#FAFAFA"/>
</svg>
